<svg xmlns="http://www.w3.org/2000/svg" xmlns:a="http://ns.adobe.com/AdobeSVGViewerExtensions/3.0/" xmlns:xlink="http://www.w3.org/1999/xlink" version="1.1" x="0px" y="0px" viewBox="0 0 600 350"  xml:space="preserve">
<defs>
  <filter id="edgeClean" color-interpolation-filters="sRGB">
    <feComponentTransfer>
      <feFuncA type="table" tableValues="0 .5 1 1" />
    </feComponentTransfer>
  </filter>
</defs>

<g class="ship">
  <g>
    <g filter="url(#edgeClean)">
	<path fill="#005292" d="M431.5,217.6C417.3,239,363.8,255,300,255s-117.3-16-131.5-37.4c-0.1,0.7-0.1,1.4-0.1,2.1   c0,27,58.9,48.9,131.7,48.9s131.7-21.9,131.7-48.9C431.7,219,431.6,218.3,431.5,217.6z" />
	<path fill="#0077CC" d="M300,255c63.8,0,117.3-16,131.5-37.4c-2-17.1-27.6-31.9-65.1-40c1.2,3.1,2.2,6.3,2.9,9.6   c-18.2,10.8-42.1,17.2-68.2,17.2c-26.1,0-50-6.5-68.3-17.2c0.8-3.5,1.8-6.8,3.1-10.1c-38.8,8-65.5,23.1-67.5,40.6   C182.7,239,236.2,255,300,255z" />
  </g>
<path class="alien" fill="#5E2121" d="M300.1,170.7c-0.9,0-1.4,0.5-1.4,1.4c0,0.9,0.5,1.4,1.4,1.4c0.9,0,1.4-0.5,1.4-1.4  C301.5,171.1,301,170.7,300.1,170.7z M300.1,170.7c-0.9,0-1.4,0.5-1.4,1.4c0,0.9,0.5,1.4,1.4,1.4c0.9,0,1.4-0.5,1.4-1.4  C301.5,171.1,301,170.7,300.1,170.7z M327.2,174.9c-2.2-2.4-4.4-4.5-7.2-6.3c0.5-0.9,1-1.9,1.1-3c0.1-1.6-0.2-3.2-1-4.7  c-0.7-1.3-1.6-2.4-2.7-3.2c0.1-0.2,0.1-0.5,0.1-0.7c0-1.7-1.3-3-3-3c-1.7,0-3,1.3-3,3c0,1.7,1.4,3,3,3c0.9,0,1.8-0.4,2.3-1.1  c1.2,1.8,1.8,3.6,1.8,5.4c0,1-0.2,2-0.6,2.9c-6-3.3-12.2-5-18.7-5c-6.6,0-12.8,1.6-18.7,4.9c-0.4-1-0.6-2-0.6-3c0-2,0.6-3.8,1.8-5.3  c0.5,0.7,1.4,1.2,2.4,1.2c1.7,0,3-1.3,3-3c0-1.7-1.3-3-3-3c-1.7,0-3,1.3-3,3c0,0.3,0,0.6,0.1,0.8l-1,1c-1.3,1.4-2.1,2.4-2.3,3  c-0.4,1-0.6,2.1-0.6,3.1c0,1.2,0.3,2.4,0.9,3.5c-2.7,1.8-5.2,4-7.4,6.5c7.1,7.9,15.2,13.3,26.2,13.8v2.9c-3,0.8-5.7,2.6-7.8,6.3  c-1.1,2-1.7,4.1-2.1,6c4.4,0.4,8.9,0.6,13.5,0.6c3.3,0,6.6-0.1,9.8-0.3c-0.5-2.2-1.5-4.6-2.7-6.7c-2-3.7-4.8-5.1-7.8-6v-2.9  C311.3,188.3,319.9,182.9,327.2,174.9z M300.2,167.2c3.2,0,4.8,1.6,4.8,4.8c0,3.2-1.6,4.8-4.8,4.8c-3.3,0-4.9-1.6-4.9-4.8  C295.3,168.8,296.9,167.2,300.2,167.2z M299.3,184.3c-3.2,0-6.3-0.3-8.9-0.8c-4-0.8-6.2-2-6.2-3.7v-0.4c0,0.9,2.3,1.4,5.1,2.1  c2.8,0.6,6.4-0.3,10.4-0.3c2.5,0,5.5,1,8.2,0.6c4-0.6,5.1-1.2,6-2.2l0.1,0.2c0,1-0.3,2.1-1.5,2.6C309.6,183.8,305,184.3,299.3,184.3  z M300.1,173.4c0.9,0,1.4-0.5,1.4-1.4c0-0.9-0.5-1.4-1.4-1.4c-0.9,0-1.4,0.5-1.4,1.4C298.7,172.9,299.2,173.4,300.1,173.4z" />
	<path fill="#ffecd8" filter="url(#edgeClean)" opacity="0.7" d="M301.1,204.3c26.1,0,50-6.5,68.2-17.2c-0.7-3.3-1.7-6.5-2.9-9.6c-10-26.4-35.4-45.1-65.3-45.1   c-29.7,0-55,18.5-65.2,44.6c-1.3,3.3-2.3,6.6-3.1,10.1C251.1,197.8,275,204.3,301.1,204.3z" />
	<path fill="#ffecd8" opacity="0.7" d="M343,191.8c4.8-1.8,9.2-3.9,13.3-6.3c-5.2-23.7-26.2-41.6-51.4-42C322.8,150.1,337.1,168.3,343,191.8z" />
<g filter="url(#edgeClean)">
<circle class="light" fill="#1d1d1d" cx="198.3" cy="207.5" r="4" />
<circle class="light" fill="#1d1d1d" cx="233.3" cy="223.5" r="4" />
<circle class="light" fill="#1d1d1d" cx="277.3" cy="231.5" r="4" />
<circle class="light" fill="#1d1d1d" cx="323.3" cy="234.5" r="4" />
<circle class="light" fill="#1d1d1d" cx="366.3" cy="224.5" r="4" />
<circle class="light" fill="#1d1d1d" cx="402.3" cy="207.5" r="4" />
    </g>
</g>
  </g>

</svg>